<svg width="50" height="51" viewBox="0 0 50 51" fill="none" xmlns="http://www.w3.org/2000/svg">
<path d="M23.9281 20.0172C24.2719 18.9859 25.7281 18.9859 26.0719 20.0172L28.0875 26.0703C28.5312 27.401 29.2787 28.61 30.2708 29.6015C31.2629 30.5931 32.4723 31.3399 33.8031 31.7828L39.8531 33.7984C40.8844 34.1422 40.8844 35.5984 39.8531 35.9422L33.8 37.9578C32.4694 38.4015 31.2604 39.149 30.2688 40.1411C29.2773 41.1332 28.5305 42.3426 28.0875 43.6735L26.0719 49.7234C25.9978 49.9493 25.8542 50.1459 25.6618 50.2853C25.4693 50.4247 25.2377 50.4998 25 50.4998C24.7624 50.4998 24.5308 50.4247 24.3383 50.2853C24.1458 50.1459 24.0023 49.9493 23.9281 49.7234L21.9125 43.6703C21.4692 42.34 20.7221 41.1312 19.7306 40.1397C18.7391 39.1482 17.5303 38.4012 16.2 37.9578L10.1469 35.9422C9.92108 35.8681 9.72443 35.7246 9.58502 35.5321C9.44561 35.3396 9.37055 35.108 9.37055 34.8703C9.37055 34.6327 9.44561 34.4011 9.58502 34.2086C9.72443 34.0161 9.92108 33.8726 10.1469 33.7984L16.2 31.7828C17.5303 31.3395 18.7391 30.5925 19.7306 29.6009C20.7221 28.6094 21.4692 27.4006 21.9125 26.0703L23.9281 20.0172ZM11.8563 4.08282C11.9011 3.94749 11.9874 3.82973 12.103 3.74626C12.2185 3.66279 12.3575 3.61786 12.5 3.61786C12.6426 3.61786 12.7815 3.66279 12.8971 3.74626C13.0126 3.82973 13.099 3.94749 13.1438 4.08282L14.3531 7.71407C14.8938 9.33282 16.1625 10.6016 17.7813 11.1422L21.4125 12.3516C21.5478 12.3964 21.6656 12.4827 21.7491 12.5983C21.8326 12.7138 21.8775 12.8528 21.8775 12.9953C21.8775 13.1379 21.8326 13.2768 21.7491 13.3924C21.6656 13.5079 21.5478 13.5943 21.4125 13.6391L17.7813 14.8484C16.9829 15.1144 16.2575 15.5627 15.6624 16.1577C15.0674 16.7528 14.6191 17.4782 14.3531 18.2766L13.1438 21.9078C13.099 22.0432 13.0126 22.1609 12.8971 22.2444C12.7815 22.3279 12.6426 22.3728 12.5 22.3728C12.3575 22.3728 12.2185 22.3279 12.103 22.2444C11.9874 22.1609 11.9011 22.0432 11.8563 21.9078L10.6469 18.2766C10.3809 17.4782 9.93263 16.7528 9.3376 16.1577C8.74257 15.5627 8.01713 15.1144 7.21877 14.8484L3.58752 13.6391C3.45219 13.5943 3.33442 13.5079 3.25095 13.3924C3.16748 13.2768 3.12256 13.1379 3.12256 12.9953C3.12256 12.8528 3.16748 12.7138 3.25095 12.5983C3.33442 12.4827 3.45219 12.3964 3.58752 12.3516L7.21877 11.1422C8.01713 10.8762 8.74257 10.4279 9.3376 9.8329C9.93263 9.23787 10.3809 8.51243 10.6469 7.71407L11.8563 4.08282ZM33.9469 0.804696C33.9777 0.715715 34.0355 0.638558 34.1123 0.583951C34.189 0.529343 34.2808 0.5 34.375 0.5C34.4692 0.5 34.561 0.529343 34.6378 0.583951C34.7145 0.638558 34.7723 0.715715 34.8031 0.804696L35.6094 3.22345C35.9688 4.3047 36.8156 5.15157 37.8969 5.51095L40.3156 6.3172C40.4046 6.34805 40.4818 6.40585 40.5364 6.48258C40.591 6.55931 40.6203 6.65114 40.6203 6.74532C40.6203 6.8395 40.591 6.93133 40.5364 7.00806C40.4818 7.08479 40.4046 7.1426 40.3156 7.17345L37.8969 7.9797C37.364 8.15696 36.8799 8.456 36.4828 8.85308C36.0857 9.25016 35.7867 9.73435 35.6094 10.2672L34.8031 12.6859C34.7723 12.7749 34.7145 12.8521 34.6378 12.9067C34.561 12.9613 34.4692 12.9906 34.375 12.9906C34.2808 12.9906 34.189 12.9613 34.1123 12.9067C34.0355 12.8521 33.9777 12.7749 33.9469 12.6859L33.1406 10.2672C32.9634 9.73435 32.6643 9.25016 32.2673 8.85308C31.8702 8.456 31.386 8.15696 30.8531 7.9797L28.4375 7.17345C28.3485 7.1426 28.2714 7.08479 28.2168 7.00806C28.1622 6.93133 28.1328 6.8395 28.1328 6.74532C28.1328 6.65114 28.1622 6.55931 28.2168 6.48258C28.2714 6.40585 28.3485 6.34805 28.4375 6.3172L30.8563 5.51095C31.9375 5.15157 32.7844 4.3047 33.1438 3.22345L33.9469 0.807821V0.804696Z" fill="url(#paint0_radial_200_302)"/>
<path d="M23.9281 20.0172C24.2719 18.9859 25.7281 18.9859 26.0719 20.0172L28.0875 26.0703C28.5312 27.401 29.2787 28.61 30.2708 29.6015C31.2629 30.5931 32.4723 31.3399 33.8031 31.7828L39.8531 33.7984C40.8844 34.1422 40.8844 35.5984 39.8531 35.9422L33.8 37.9578C32.4694 38.4015 31.2604 39.149 30.2688 40.1411C29.2773 41.1332 28.5305 42.3426 28.0875 43.6735L26.0719 49.7234C25.9978 49.9493 25.8542 50.1459 25.6618 50.2853C25.4693 50.4247 25.2377 50.4998 25 50.4998C24.7624 50.4998 24.5308 50.4247 24.3383 50.2853C24.1458 50.1459 24.0023 49.9493 23.9281 49.7234L21.9125 43.6703C21.4692 42.34 20.7221 41.1312 19.7306 40.1397C18.7391 39.1482 17.5303 38.4012 16.2 37.9578L10.1469 35.9422C9.92108 35.8681 9.72443 35.7246 9.58502 35.5321C9.44561 35.3396 9.37055 35.108 9.37055 34.8703C9.37055 34.6327 9.44561 34.4011 9.58502 34.2086C9.72443 34.0161 9.92108 33.8726 10.1469 33.7984L16.2 31.7828C17.5303 31.3395 18.7391 30.5925 19.7306 29.6009C20.7221 28.6094 21.4692 27.4006 21.9125 26.0703L23.9281 20.0172ZM11.8563 4.08282C11.9011 3.94749 11.9874 3.82973 12.103 3.74626C12.2185 3.66279 12.3575 3.61786 12.5 3.61786C12.6426 3.61786 12.7815 3.66279 12.8971 3.74626C13.0126 3.82973 13.099 3.94749 13.1438 4.08282L14.3531 7.71407C14.8938 9.33282 16.1625 10.6016 17.7813 11.1422L21.4125 12.3516C21.5478 12.3964 21.6656 12.4827 21.7491 12.5983C21.8326 12.7138 21.8775 12.8528 21.8775 12.9953C21.8775 13.1379 21.8326 13.2768 21.7491 13.3924C21.6656 13.5079 21.5478 13.5943 21.4125 13.6391L17.7813 14.8484C16.9829 15.1144 16.2575 15.5627 15.6624 16.1577C15.0674 16.7528 14.6191 17.4782 14.3531 18.2766L13.1438 21.9078C13.099 22.0432 13.0126 22.1609 12.8971 22.2444C12.7815 22.3279 12.6426 22.3728 12.5 22.3728C12.3575 22.3728 12.2185 22.3279 12.103 22.2444C11.9874 22.1609 11.9011 22.0432 11.8563 21.9078L10.6469 18.2766C10.3809 17.4782 9.93263 16.7528 9.3376 16.1577C8.74257 15.5627 8.01713 15.1144 7.21877 14.8484L3.58752 13.6391C3.45219 13.5943 3.33442 13.5079 3.25095 13.3924C3.16748 13.2768 3.12256 13.1379 3.12256 12.9953C3.12256 12.8528 3.16748 12.7138 3.25095 12.5983C3.33442 12.4827 3.45219 12.3964 3.58752 12.3516L7.21877 11.1422C8.01713 10.8762 8.74257 10.4279 9.3376 9.8329C9.93263 9.23787 10.3809 8.51243 10.6469 7.71407L11.8563 4.08282ZM33.9469 0.804696C33.9777 0.715715 34.0355 0.638558 34.1123 0.583951C34.189 0.529343 34.2808 0.5 34.375 0.5C34.4692 0.5 34.561 0.529343 34.6378 0.583951C34.7145 0.638558 34.7723 0.715715 34.8031 0.804696L35.6094 3.22345C35.9688 4.3047 36.8156 5.15157 37.8969 5.51095L40.3156 6.3172C40.4046 6.34805 40.4818 6.40585 40.5364 6.48258C40.591 6.55931 40.6203 6.65114 40.6203 6.74532C40.6203 6.8395 40.591 6.93133 40.5364 7.00806C40.4818 7.08479 40.4046 7.1426 40.3156 7.17345L37.8969 7.9797C37.364 8.15696 36.8799 8.456 36.4828 8.85308C36.0857 9.25016 35.7867 9.73435 35.6094 10.2672L34.8031 12.6859C34.7723 12.7749 34.7145 12.8521 34.6378 12.9067C34.561 12.9613 34.4692 12.9906 34.375 12.9906C34.2808 12.9906 34.189 12.9613 34.1123 12.9067C34.0355 12.8521 33.9777 12.7749 33.9469 12.6859L33.1406 10.2672C32.9634 9.73435 32.6643 9.25016 32.2673 8.85308C31.8702 8.456 31.386 8.15696 30.8531 7.9797L28.4375 7.17345C28.3485 7.1426 28.2714 7.08479 28.2168 7.00806C28.1622 6.93133 28.1328 6.8395 28.1328 6.74532C28.1328 6.65114 28.1622 6.55931 28.2168 6.48258C28.2714 6.40585 28.3485 6.34805 28.4375 6.3172L30.8563 5.51095C31.9375 5.15157 32.7844 4.3047 33.1438 3.22345L33.9469 0.807821V0.804696Z" stroke="black"/>
<path d="M23.9281 20.0172C24.2719 18.9859 25.7281 18.9859 26.0719 20.0172L28.0875 26.0703C28.5312 27.401 29.2787 28.61 30.2708 29.6015C31.2629 30.5931 32.4723 31.3399 33.8031 31.7828L39.8531 33.7984C40.8844 34.1422 40.8844 35.5984 39.8531 35.9422L33.8 37.9578C32.4694 38.4015 31.2604 39.149 30.2688 40.1411C29.2773 41.1332 28.5305 42.3426 28.0875 43.6735L26.0719 49.7234C25.9978 49.9493 25.8542 50.1459 25.6618 50.2853C25.4693 50.4247 25.2377 50.4998 25 50.4998C24.7624 50.4998 24.5308 50.4247 24.3383 50.2853C24.1458 50.1459 24.0023 49.9493 23.9281 49.7234L21.9125 43.6703C21.4692 42.34 20.7221 41.1312 19.7306 40.1397C18.7391 39.1482 17.5303 38.4012 16.2 37.9578L10.1469 35.9422C9.92108 35.8681 9.72443 35.7246 9.58502 35.5321C9.44561 35.3396 9.37055 35.108 9.37055 34.8703C9.37055 34.6327 9.44561 34.4011 9.58502 34.2086C9.72443 34.0161 9.92108 33.8726 10.1469 33.7984L16.2 31.7828C17.5303 31.3395 18.7391 30.5925 19.7306 29.6009C20.7221 28.6094 21.4692 27.4006 21.9125 26.0703L23.9281 20.0172ZM11.8563 4.08282C11.9011 3.94749 11.9874 3.82973 12.103 3.74626C12.2185 3.66279 12.3575 3.61786 12.5 3.61786C12.6426 3.61786 12.7815 3.66279 12.8971 3.74626C13.0126 3.82973 13.099 3.94749 13.1438 4.08282L14.3531 7.71407C14.8938 9.33282 16.1625 10.6016 17.7813 11.1422L21.4125 12.3516C21.5478 12.3964 21.6656 12.4827 21.7491 12.5983C21.8326 12.7138 21.8775 12.8528 21.8775 12.9953C21.8775 13.1379 21.8326 13.2768 21.7491 13.3924C21.6656 13.5079 21.5478 13.5943 21.4125 13.6391L17.7813 14.8484C16.9829 15.1144 16.2575 15.5627 15.6624 16.1577C15.0674 16.7528 14.6191 17.4782 14.3531 18.2766L13.1438 21.9078C13.099 22.0432 13.0126 22.1609 12.8971 22.2444C12.7815 22.3279 12.6426 22.3728 12.5 22.3728C12.3575 22.3728 12.2185 22.3279 12.103 22.2444C11.9874 22.1609 11.9011 22.0432 11.8563 21.9078L10.6469 18.2766C10.3809 17.4782 9.93263 16.7528 9.3376 16.1577C8.74257 15.5627 8.01713 15.1144 7.21877 14.8484L3.58752 13.6391C3.45219 13.5943 3.33442 13.5079 3.25095 13.3924C3.16748 13.2768 3.12256 13.1379 3.12256 12.9953C3.12256 12.8528 3.16748 12.7138 3.25095 12.5983C3.33442 12.4827 3.45219 12.3964 3.58752 12.3516L7.21877 11.1422C8.01713 10.8762 8.74257 10.4279 9.3376 9.8329C9.93263 9.23787 10.3809 8.51243 10.6469 7.71407L11.8563 4.08282ZM33.9469 0.804696C33.9777 0.715715 34.0355 0.638558 34.1123 0.583951C34.189 0.529343 34.2808 0.5 34.375 0.5C34.4692 0.5 34.561 0.529343 34.6378 0.583951C34.7145 0.638558 34.7723 0.715715 34.8031 0.804696L35.6094 3.22345C35.9688 4.3047 36.8156 5.15157 37.8969 5.51095L40.3156 6.3172C40.4046 6.34805 40.4818 6.40585 40.5364 6.48258C40.591 6.55931 40.6203 6.65114 40.6203 6.74532C40.6203 6.8395 40.591 6.93133 40.5364 7.00806C40.4818 7.08479 40.4046 7.1426 40.3156 7.17345L37.8969 7.9797C37.364 8.15696 36.8799 8.456 36.4828 8.85308C36.0857 9.25016 35.7867 9.73435 35.6094 10.2672L34.8031 12.6859C34.7723 12.7749 34.7145 12.8521 34.6378 12.9067C34.561 12.9613 34.4692 12.9906 34.375 12.9906C34.2808 12.9906 34.189 12.9613 34.1123 12.9067C34.0355 12.8521 33.9777 12.7749 33.9469 12.6859L33.1406 10.2672C32.9634 9.73435 32.6643 9.25016 32.2673 8.85308C31.8702 8.456 31.386 8.15696 30.8531 7.9797L28.4375 7.17345C28.3485 7.1426 28.2714 7.08479 28.2168 7.00806C28.1622 6.93133 28.1328 6.8395 28.1328 6.74532C28.1328 6.65114 28.1622 6.55931 28.2168 6.48258C28.2714 6.40585 28.3485 6.34805 28.4375 6.3172L30.8563 5.51095C31.9375 5.15157 32.7844 4.3047 33.1438 3.22345L33.9469 0.807821V0.804696Z" stroke="#F7F4EE"/>
<defs>
<radialGradient id="paint0_radial_200_302" cx="0" cy="0" r="1" gradientTransform="matrix(18.752 24.9999 -18.752 143.5 21.869 26.0207)" gradientUnits="userSpaceOnUse">
<stop stop-color="#FFF4B0"/>
<stop offset="0.252665" stop-color="#F7D774"/>
<stop offset="0.5" stop-color="#D4AF37"/>
<stop offset="0.75" stop-color="#B8860B"/>
<stop offset="1" stop-color="#7A5A00"/>
</radialGradient>
</defs>
</svg>
