<svg width="50" height="50" viewBox="0 0 50 50" fill="none" xmlns="http://www.w3.org/2000/svg">
<path d="M38.7021 3.125H25.7812L34.0029 14.0879L38.7021 3.125ZM11.2979 3.125L15.9971 14.0879L24.2188 3.125H11.2979ZM25 7.29199L18.75 15.625H31.25L25 7.29199ZM41.3037 4.98633L36.7441 15.625H47.6562L41.3037 4.98633ZM8.69629 4.98633L2.24609 15.625H13.2559L8.69629 4.98633ZM14.3242 18.75H2.34375L24.1016 46.875H24.1533L14.3242 18.75ZM35.6758 18.75L25.8467 46.875H25.8984L47.6562 18.75H35.6758ZM32.167 18.75H17.833L25 39.0625L32.167 18.75Z" fill="url(#paint0_radial_201_321)"/>
<path d="M38.7021 3.125H25.7812L34.0029 14.0879L38.7021 3.125ZM11.2979 3.125L15.9971 14.0879L24.2188 3.125H11.2979ZM25 7.29199L18.75 15.625H31.25L25 7.29199ZM41.3037 4.98633L36.7441 15.625H47.6562L41.3037 4.98633ZM8.69629 4.98633L2.24609 15.625H13.2559L8.69629 4.98633ZM14.3242 18.75H2.34375L24.1016 46.875H24.1533L14.3242 18.75ZM35.6758 18.75L25.8467 46.875H25.8984L47.6562 18.75H35.6758ZM32.167 18.75H17.833L25 39.0625L32.167 18.75Z" stroke="black"/>
<path d="M38.7021 3.125H25.7812L34.0029 14.0879L38.7021 3.125ZM11.2979 3.125L15.9971 14.0879L24.2188 3.125H11.2979ZM25 7.29199L18.75 15.625H31.25L25 7.29199ZM41.3037 4.98633L36.7441 15.625H47.6562L41.3037 4.98633ZM8.69629 4.98633L2.24609 15.625H13.2559L8.69629 4.98633ZM14.3242 18.75H2.34375L24.1016 46.875H24.1533L14.3242 18.75ZM35.6758 18.75L25.8467 46.875H25.8984L47.6562 18.75H35.6758ZM32.167 18.75H17.833L25 39.0625L32.167 18.75Z" stroke="#F7F4EE"/>
<defs>
<radialGradient id="paint0_radial_201_321" cx="0" cy="0" r="1" gradientTransform="matrix(22.7051 21.875 -22.7051 125.563 24.9444 25.4557)" gradientUnits="userSpaceOnUse">
<stop stop-color="#FFF4B0"/>
<stop offset="0.252665" stop-color="#F7D774"/>
<stop offset="0.5" stop-color="#D4AF37"/>
<stop offset="0.75" stop-color="#B8860B"/>
<stop offset="1" stop-color="#7A5A00"/>
</radialGradient>
</defs>
</svg>
