<svg width="65" height="65" viewBox="0 0 65 65" fill="none" xmlns="http://www.w3.org/2000/svg">
<path fill-rule="evenodd" clip-rule="evenodd" d="M32.5 13.3778L56.875 37.7528V54.8438C56.875 56.4599 56.233 58.0099 55.0902 59.1527C53.9474 60.2955 52.3974 60.9375 50.7812 60.9375H14.2188C12.6026 60.9375 11.0526 60.2955 9.90982 59.1527C8.76702 58.0099 8.125 56.4599 8.125 54.8438V37.7528L32.5 13.3778ZM52.8125 10.1562V24.375L44.6875 16.25V10.1562C44.6875 9.61753 44.9015 9.10087 45.2824 8.71994C45.6634 8.33901 46.18 8.125 46.7188 8.125H50.7812C51.32 8.125 51.8366 8.33901 52.2176 8.71994C52.5985 9.10087 52.8125 9.61753 52.8125 10.1562Z" fill="url(#paint0_linear_145_3066)"/>
<path fill-rule="evenodd" clip-rule="evenodd" d="M32.5 13.3778L56.875 37.7528V54.8438C56.875 56.4599 56.233 58.0099 55.0902 59.1527C53.9474 60.2955 52.3974 60.9375 50.7812 60.9375H14.2188C12.6026 60.9375 11.0526 60.2955 9.90982 59.1527C8.76702 58.0099 8.125 56.4599 8.125 54.8438V37.7528L32.5 13.3778ZM52.8125 10.1562V24.375L44.6875 16.25V10.1562C44.6875 9.61753 44.9015 9.10087 45.2824 8.71994C45.6634 8.33901 46.18 8.125 46.7188 8.125H50.7812C51.32 8.125 51.8366 8.33901 52.2176 8.71994C52.5985 9.10087 52.8125 9.61753 52.8125 10.1562Z" fill="url(#paint1_radial_145_3066)"/>
<path fill-rule="evenodd" clip-rule="evenodd" d="M32.5 13.3778L56.875 37.7528V54.8438C56.875 56.4599 56.233 58.0099 55.0902 59.1527C53.9474 60.2955 52.3974 60.9375 50.7812 60.9375H14.2188C12.6026 60.9375 11.0526 60.2955 9.90982 59.1527C8.76702 58.0099 8.125 56.4599 8.125 54.8438V37.7528L32.5 13.3778ZM52.8125 10.1562V24.375L44.6875 16.25V10.1562C44.6875 9.61753 44.9015 9.10087 45.2824 8.71994C45.6634 8.33901 46.18 8.125 46.7188 8.125H50.7812C51.32 8.125 51.8366 8.33901 52.2176 8.71994C52.5985 9.10087 52.8125 9.61753 52.8125 10.1562Z" stroke="#3D3128"/>
<path fill-rule="evenodd" clip-rule="evenodd" d="M29.6277 6.09374C30.3895 5.33214 31.4227 4.9043 32.4999 4.9043C33.5771 4.9043 34.6102 5.33214 35.3721 6.09374L62.3755 33.0931C62.7569 33.4745 62.9712 33.9918 62.9712 34.5312C62.9712 35.0706 62.7569 35.588 62.3755 35.9694C61.9941 36.3508 61.4768 36.5651 60.9374 36.5651C60.398 36.5651 59.8807 36.3508 59.4993 35.9694L32.4999 8.96593L5.50051 35.9694C5.11909 36.3508 4.60178 36.5651 4.06238 36.5651C3.52298 36.5651 3.00567 36.3508 2.62426 35.9694C2.24284 35.588 2.02856 35.0706 2.02856 34.5312C2.02856 33.9918 2.24284 33.4745 2.62426 33.0931L29.6277 6.09374Z" fill="url(#paint2_linear_145_3066)"/>
<path fill-rule="evenodd" clip-rule="evenodd" d="M29.6277 6.09374C30.3895 5.33214 31.4227 4.9043 32.4999 4.9043C33.5771 4.9043 34.6102 5.33214 35.3721 6.09374L62.3755 33.0931C62.7569 33.4745 62.9712 33.9918 62.9712 34.5312C62.9712 35.0706 62.7569 35.588 62.3755 35.9694C61.9941 36.3508 61.4768 36.5651 60.9374 36.5651C60.398 36.5651 59.8807 36.3508 59.4993 35.9694L32.4999 8.96593L5.50051 35.9694C5.11909 36.3508 4.60178 36.5651 4.06238 36.5651C3.52298 36.5651 3.00567 36.3508 2.62426 35.9694C2.24284 35.588 2.02856 35.0706 2.02856 34.5312C2.02856 33.9918 2.24284 33.4745 2.62426 33.0931L29.6277 6.09374Z" fill="url(#paint3_radial_145_3066)"/>
<path fill-rule="evenodd" clip-rule="evenodd" d="M29.6277 6.09374C30.3895 5.33214 31.4227 4.9043 32.4999 4.9043C33.5771 4.9043 34.6102 5.33214 35.3721 6.09374L62.3755 33.0931C62.7569 33.4745 62.9712 33.9918 62.9712 34.5312C62.9712 35.0706 62.7569 35.588 62.3755 35.9694C61.9941 36.3508 61.4768 36.5651 60.9374 36.5651C60.398 36.5651 59.8807 36.3508 59.4993 35.9694L32.4999 8.96593L5.50051 35.9694C5.11909 36.3508 4.60178 36.5651 4.06238 36.5651C3.52298 36.5651 3.00567 36.3508 2.62426 35.9694C2.24284 35.588 2.02856 35.0706 2.02856 34.5312C2.02856 33.9918 2.24284 33.4745 2.62426 33.0931L29.6277 6.09374Z" stroke="#3D3128"/>
<defs>
<linearGradient id="paint0_linear_145_3066" x1="32.5" y1="8.125" x2="32.5" y2="60.9375" gradientUnits="userSpaceOnUse">
<stop/>
<stop offset="1" stop-color="#666666"/>
</linearGradient>
<radialGradient id="paint1_radial_145_3066" cx="0" cy="0" r="1" gradientTransform="matrix(24.375 26.4063 -24.375 151.572 32.4927 35.0814)" gradientUnits="userSpaceOnUse">
<stop stop-color="#FFF4B0"/>
<stop offset="0.252665" stop-color="#F7D774"/>
<stop offset="0.5" stop-color="#D4AF37"/>
<stop offset="0.75" stop-color="#B8860B"/>
<stop offset="1" stop-color="#7A5A00"/>
</radialGradient>
<linearGradient id="paint2_linear_145_3066" x1="32.4999" y1="4.9043" x2="32.4999" y2="36.5651" gradientUnits="userSpaceOnUse">
<stop/>
<stop offset="1" stop-color="#666666"/>
</linearGradient>
<radialGradient id="paint3_radial_145_3066" cx="0" cy="0" r="1" gradientTransform="matrix(30.4713 15.8304 -30.4713 90.8667 32.4908 21.0645)" gradientUnits="userSpaceOnUse">
<stop stop-color="#FFF4B0"/>
<stop offset="0.252665" stop-color="#F7D774"/>
<stop offset="0.5" stop-color="#D4AF37"/>
<stop offset="0.75" stop-color="#B8860B"/>
<stop offset="1" stop-color="#7A5A00"/>
</radialGradient>
</defs>
</svg>
