<svg width="65" height="65" viewBox="0 0 65 65" fill="none" xmlns="http://www.w3.org/2000/svg">
<path d="M58.9099 1.68848C59.4883 1.68869 60.0612 1.80293 60.5955 2.02441C61.1297 2.24594 61.6153 2.5704 62.0242 2.97949C62.4331 3.38865 62.7571 3.8747 62.9783 4.40918C63.1994 4.94363 63.3134 5.51631 63.3132 6.09473C63.3131 6.67318 63.1988 7.24591 62.9773 7.78027C62.756 8.31416 62.4318 8.79932 62.0232 9.20801L61.4177 9.80957L61.0818 10.1436L61.3972 10.4971C62.3476 11.5631 62.8541 12.9523 62.8132 14.3799C62.7723 15.8073 62.1872 17.165 61.1775 18.1748L19.3669 59.9893C19.1699 60.1853 18.9229 60.3241 18.6531 60.3906L18.6511 60.3916L2.4021 64.4531C2.14583 64.5169 1.87729 64.5139 1.6228 64.4434C1.36824 64.3727 1.13577 64.2376 0.948975 64.0508C0.76217 63.864 0.627034 63.6315 0.556396 63.377C0.485904 63.1228 0.482084 62.8546 0.545654 62.5986L4.60815 46.3486V46.3477C4.65843 46.1461 4.74912 45.9574 4.87378 45.793L5.00952 45.6377L44.6003 6.04688L44.114 5.70508C43.6258 5.3615 43.0319 5.20108 42.4373 5.25293C41.8431 5.30476 41.2862 5.56503 40.865 5.9873L27.491 19.3652C27.3485 19.5077 27.179 19.6212 26.9929 19.6982C26.8069 19.7752 26.6073 19.8145 26.406 19.8145C26.2047 19.8144 26.0051 19.7753 25.8191 19.6982C25.633 19.6212 25.4644 19.5076 25.322 19.3652C25.1796 19.2228 25.0661 19.0542 24.989 18.8682C24.912 18.6822 24.8728 18.4826 24.8728 18.2812C24.8728 18.0799 24.912 17.8803 24.989 17.6943C25.0661 17.5082 25.1796 17.3387 25.322 17.1963L38.7039 3.82324V3.82227C39.7143 2.81193 41.0733 2.22674 42.5017 2.18652C43.9302 2.14634 45.3198 2.65441 46.3855 3.60645L46.7185 3.9043L47.0515 3.60645C48.0762 2.69071 49.4029 2.18428 50.7771 2.18359C52.1511 2.18302 53.4773 2.68797 54.5027 3.60254L54.8552 3.91699L55.7947 2.97754C56.2037 2.56883 56.6891 2.2446 57.2234 2.02344C57.7579 1.80222 58.3314 1.68831 58.9099 1.68848Z" fill="url(#paint0_linear_145_3038)" stroke="#3D3128"/>
<defs>
<linearGradient id="paint0_linear_145_3038" x1="4.91721e-07" y1="65" x2="64" y2="1" gradientUnits="userSpaceOnUse">
<stop stop-color="#FFF4B0"/>
<stop offset="0.252665" stop-color="#F7D774"/>
<stop offset="0.5" stop-color="#D4AF37"/>
<stop offset="0.75" stop-color="#B8860B"/>
<stop offset="1" stop-color="#7A5A00"/>
</linearGradient>
</defs>
</svg>
