<svg width="65" height="65" viewBox="0 0 65 65" fill="none" xmlns="http://www.w3.org/2000/svg">
<path d="M60.8194 14.1358C60.791 13.6818 60.611 13.2505 60.3083 12.911C60.0056 12.5715 59.5977 12.3434 59.15 12.2632C48.2282 10.3056 43.6325 8.77455 33.7695 4.33627C32.7844 3.96938 32.1737 3.97573 31.2305 4.33627C21.3675 8.77963 16.7718 10.3031 5.84999 12.2632C5.40224 12.3434 4.99435 12.5715 4.69165 12.911C4.38896 13.2505 4.20898 13.6818 4.18056 14.1358C3.69179 21.8926 4.73154 29.1162 7.27314 35.6099C9.35139 40.905 12.4302 45.7503 16.3414 49.8807C22.0124 55.9021 28.3004 59.4174 31.5428 60.7479C32.1576 60.9987 32.8462 60.9987 33.461 60.7479C36.8888 59.3616 42.9432 55.9465 48.6586 49.8782C52.5695 45.7485 55.6483 40.9041 57.7269 35.6099C60.2685 29.1175 61.3082 21.8926 60.8194 14.1358Z" fill="url(#paint0_linear_145_3060)"/>
<path d="M60.8194 14.1358C60.791 13.6818 60.611 13.2505 60.3083 12.911C60.0056 12.5715 59.5977 12.3434 59.15 12.2632C48.2282 10.3056 43.6325 8.77455 33.7695 4.33627C32.7844 3.96938 32.1737 3.97573 31.2305 4.33627C21.3675 8.77963 16.7718 10.3031 5.84999 12.2632C5.40224 12.3434 4.99435 12.5715 4.69165 12.911C4.38896 13.2505 4.20898 13.6818 4.18056 14.1358C3.69179 21.8926 4.73154 29.1162 7.27314 35.6099C9.35139 40.905 12.4302 45.7503 16.3414 49.8807C22.0124 55.9021 28.3004 59.4174 31.5428 60.7479C32.1576 60.9987 32.8462 60.9987 33.461 60.7479C36.8888 59.3616 42.9432 55.9465 48.6586 49.8782C52.5695 45.7485 55.6483 40.9041 57.7269 35.6099C60.2685 29.1175 61.3082 21.8926 60.8194 14.1358Z" fill="url(#paint1_radial_145_3060)"/>
<path d="M60.8194 14.1358C60.791 13.6818 60.611 13.2505 60.3083 12.911C60.0056 12.5715 59.5977 12.3434 59.15 12.2632C48.2282 10.3056 43.6325 8.77455 33.7695 4.33627C32.7844 3.96938 32.1737 3.97573 31.2305 4.33627C21.3675 8.77963 16.7718 10.3031 5.84999 12.2632C5.40224 12.3434 4.99435 12.5715 4.69165 12.911C4.38896 13.2505 4.20898 13.6818 4.18056 14.1358C3.69179 21.8926 4.73154 29.1162 7.27314 35.6099C9.35139 40.905 12.4302 45.7503 16.3414 49.8807C22.0124 55.9021 28.3004 59.4174 31.5428 60.7479C32.1576 60.9987 32.8462 60.9987 33.461 60.7479C36.8888 59.3616 42.9432 55.9465 48.6586 49.8782C52.5695 45.7485 55.6483 40.9041 57.7269 35.6099C60.2685 29.1175 61.3082 21.8926 60.8194 14.1358Z" stroke="#3D3128"/>
<defs>
<linearGradient id="paint0_linear_145_3060" x1="32.5" y1="4.06348" x2="32.5" y2="60.936" gradientUnits="userSpaceOnUse">
<stop/>
<stop offset="1" stop-color="#666666"/>
</linearGradient>
<radialGradient id="paint1_radial_145_3060" cx="0" cy="0" r="1" gradientTransform="matrix(28.4368 28.4363 -28.4368 163.225 32.4915 33.0922)" gradientUnits="userSpaceOnUse">
<stop stop-color="#FFF4B0"/>
<stop offset="0.252665" stop-color="#F7D774"/>
<stop offset="0.5" stop-color="#D4AF37"/>
<stop offset="0.75" stop-color="#B8860B"/>
<stop offset="1" stop-color="#7A5A00"/>
</radialGradient>
</defs>
</svg>
