<svg width="50" height="50" viewBox="0 0 50 50" fill="none" xmlns="http://www.w3.org/2000/svg">
<path d="M25.4648 24.2524L25.0002 24.7107L24.5335 24.2524C23.6664 23.3962 22.4969 22.9162 21.2783 22.9162C20.0598 22.9162 18.8903 23.3962 18.0231 24.2524C17.5928 24.6664 17.2504 25.163 17.0165 25.7125C16.7827 26.262 16.6621 26.8531 16.6621 27.4503C16.6621 28.0475 16.7827 28.6385 17.0165 29.188C17.2504 29.7375 17.5928 30.2342 18.0231 30.6482L25.0002 37.5003L31.9773 30.6482C32.4077 30.2342 32.75 29.7375 32.9839 29.188C33.2178 28.6385 33.3383 28.0475 33.3383 27.4503C33.3383 26.8531 33.2178 26.262 32.9839 25.7125C32.75 25.163 32.4077 24.6664 31.9773 24.2524C31.1098 23.3961 29.9399 22.916 28.721 22.916C27.5021 22.916 26.3323 23.3961 25.4648 24.2524Z" fill="url(#paint0_radial_200_308)"/>
<path d="M25.4648 24.2524L25.0002 24.7107L24.5335 24.2524C23.6664 23.3962 22.4969 22.9162 21.2783 22.9162C20.0598 22.9162 18.8903 23.3962 18.0231 24.2524C17.5928 24.6664 17.2504 25.163 17.0165 25.7125C16.7827 26.262 16.6621 26.8531 16.6621 27.4503C16.6621 28.0475 16.7827 28.6385 17.0165 29.188C17.2504 29.7375 17.5928 30.2342 18.0231 30.6482L25.0002 37.5003L31.9773 30.6482C32.4077 30.2342 32.75 29.7375 32.9839 29.188C33.2178 28.6385 33.3383 28.0475 33.3383 27.4503C33.3383 26.8531 33.2178 26.262 32.9839 25.7125C32.75 25.163 32.4077 24.6664 31.9773 24.2524C31.1098 23.3961 29.9399 22.916 28.721 22.916C27.5021 22.916 26.3323 23.3961 25.4648 24.2524Z" stroke="black"/>
<path d="M25.4648 24.2524L25.0002 24.7107L24.5335 24.2524C23.6664 23.3962 22.4969 22.9162 21.2783 22.9162C20.0598 22.9162 18.8903 23.3962 18.0231 24.2524C17.5928 24.6664 17.2504 25.163 17.0165 25.7125C16.7827 26.262 16.6621 26.8531 16.6621 27.4503C16.6621 28.0475 16.7827 28.6385 17.0165 29.188C17.2504 29.7375 17.5928 30.2342 18.0231 30.6482L25.0002 37.5003L31.9773 30.6482C32.4077 30.2342 32.75 29.7375 32.9839 29.188C33.2178 28.6385 33.3383 28.0475 33.3383 27.4503C33.3383 26.8531 33.2178 26.262 32.9839 25.7125C32.75 25.163 32.4077 24.6664 31.9773 24.2524C31.1098 23.3961 29.9399 22.916 28.721 22.916C27.5021 22.916 26.3323 23.3961 25.4648 24.2524Z" stroke="#F7F4EE"/>
<path d="M45.2228 23.5269L26.4728 4.77685C26.2795 4.58321 26.0499 4.42959 25.7972 4.32478C25.5444 4.21997 25.2735 4.16602 24.9999 4.16602C24.7263 4.16602 24.4553 4.21997 24.2026 4.32478C23.9499 4.42959 23.7203 4.58321 23.527 4.77685L4.77696 23.5269C4.4857 23.8182 4.28735 24.1894 4.207 24.5935C4.12665 24.9975 4.16791 25.4163 4.32555 25.797C4.4832 26.1776 4.75016 26.5029 5.09268 26.7319C5.4352 26.9608 5.8379 27.083 6.24988 27.0831H8.33321V41.6664C8.33321 43.9643 10.202 45.8331 12.4999 45.8331H37.4999C39.7978 45.8331 41.6665 43.9643 41.6665 41.6664V27.0831H43.7499C44.1619 27.083 44.5646 26.9608 44.9071 26.7319C45.2496 26.5029 45.5166 26.1776 45.6742 25.797C45.8319 25.4163 45.8731 24.9975 45.7928 24.5935C45.7124 24.1894 45.5141 23.8182 45.2228 23.5269ZM37.502 41.6664H12.4999V21.6977L24.9999 9.19768L37.4999 21.6977V31.2498L37.502 41.6664Z" fill="url(#paint1_radial_200_308)"/>
<path d="M45.2228 23.5269L26.4728 4.77685C26.2795 4.58321 26.0499 4.42959 25.7972 4.32478C25.5444 4.21997 25.2735 4.16602 24.9999 4.16602C24.7263 4.16602 24.4553 4.21997 24.2026 4.32478C23.9499 4.42959 23.7203 4.58321 23.527 4.77685L4.77696 23.5269C4.4857 23.8182 4.28735 24.1894 4.207 24.5935C4.12665 24.9975 4.16791 25.4163 4.32555 25.797C4.4832 26.1776 4.75016 26.5029 5.09268 26.7319C5.4352 26.9608 5.8379 27.083 6.24988 27.0831H8.33321V41.6664C8.33321 43.9643 10.202 45.8331 12.4999 45.8331H37.4999C39.7978 45.8331 41.6665 43.9643 41.6665 41.6664V27.0831H43.7499C44.1619 27.083 44.5646 26.9608 44.9071 26.7319C45.2496 26.5029 45.5166 26.1776 45.6742 25.797C45.8319 25.4163 45.8731 24.9975 45.7928 24.5935C45.7124 24.1894 45.5141 23.8182 45.2228 23.5269ZM37.502 41.6664H12.4999V21.6977L24.9999 9.19768L37.4999 21.6977V31.2498L37.502 41.6664Z" stroke="black"/>
<path d="M45.2228 23.5269L26.4728 4.77685C26.2795 4.58321 26.0499 4.42959 25.7972 4.32478C25.5444 4.21997 25.2735 4.16602 24.9999 4.16602C24.7263 4.16602 24.4553 4.21997 24.2026 4.32478C23.9499 4.42959 23.7203 4.58321 23.527 4.77685L4.77696 23.5269C4.4857 23.8182 4.28735 24.1894 4.207 24.5935C4.12665 24.9975 4.16791 25.4163 4.32555 25.797C4.4832 26.1776 4.75016 26.5029 5.09268 26.7319C5.4352 26.9608 5.8379 27.083 6.24988 27.0831H8.33321V41.6664C8.33321 43.9643 10.202 45.8331 12.4999 45.8331H37.4999C39.7978 45.8331 41.6665 43.9643 41.6665 41.6664V27.0831H43.7499C44.1619 27.083 44.5646 26.9608 44.9071 26.7319C45.2496 26.5029 45.5166 26.1776 45.6742 25.797C45.8319 25.4163 45.8731 24.9975 45.7928 24.5935C45.7124 24.1894 45.5141 23.8182 45.2228 23.5269ZM37.502 41.6664H12.4999V21.6977L24.9999 9.19768L37.4999 21.6977V31.2498L37.502 41.6664Z" stroke="#F7F4EE"/>
<defs>
<radialGradient id="paint0_radial_200_308" cx="0" cy="0" r="1" gradientTransform="matrix(8.3381 7.29213 -8.3381 41.8569 24.9977 30.3601)" gradientUnits="userSpaceOnUse">
<stop stop-color="#FFF4B0"/>
<stop offset="0.252665" stop-color="#F7D774"/>
<stop offset="0.5" stop-color="#D4AF37"/>
<stop offset="0.75" stop-color="#B8860B"/>
<stop offset="1" stop-color="#7A5A00"/>
</radialGradient>
<radialGradient id="paint1_radial_200_308" cx="0" cy="0" r="1" gradientTransform="matrix(20.8329 20.8335 -20.8329 119.585 24.9936 25.4336)" gradientUnits="userSpaceOnUse">
<stop stop-color="#FFF4B0"/>
<stop offset="0.252665" stop-color="#F7D774"/>
<stop offset="0.5" stop-color="#D4AF37"/>
<stop offset="0.75" stop-color="#B8860B"/>
<stop offset="1" stop-color="#7A5A00"/>
</radialGradient>
</defs>
</svg>
