<svg width="50" height="50" viewBox="0 0 50 50" fill="none" xmlns="http://www.w3.org/2000/svg">
<path d="M22.5 15C22.5 16.9891 21.7098 18.8968 20.3033 20.3033C18.8968 21.7098 16.9891 22.5 15 22.5C13.0109 22.5 11.1032 21.7098 9.6967 20.3033C8.29018 18.8968 7.5 16.9891 7.5 15C7.5 13.0109 8.29018 11.1032 9.6967 9.6967C11.1032 8.29018 13.0109 7.5 15 7.5C16.9891 7.5 18.8968 8.29018 20.3033 9.6967C21.7098 11.1032 22.5 13.0109 22.5 15ZM42.5 15C42.5 15.9849 42.306 16.9602 41.9291 17.8701C41.5522 18.7801 40.9997 19.6069 40.3033 20.3033C39.6069 20.9997 38.7801 21.5522 37.8701 21.9291C36.9602 22.306 35.9849 22.5 35 22.5C34.0151 22.5 33.0398 22.306 32.1299 21.9291C31.2199 21.5522 30.3931 20.9997 29.6967 20.3033C29.0003 19.6069 28.4478 18.7801 28.0709 17.8701C27.694 16.9602 27.5 15.9849 27.5 15C27.5 13.0109 28.2902 11.1032 29.6967 9.6967C31.1032 8.29018 33.0109 7.5 35 7.5C36.9891 7.5 38.8968 8.29018 40.3033 9.6967C41.7098 11.1032 42.5 13.0109 42.5 15ZM32.325 42.5C32.44 41.6825 32.5 40.85 32.5 40C32.5058 36.0721 31.1843 32.2575 28.75 29.175C30.6502 28.0779 32.8057 27.5003 34.9999 27.5003C37.1941 27.5003 39.3496 28.0779 41.2499 29.1749C43.1501 30.272 44.7281 31.8499 45.8252 33.7501C46.9223 35.6503 47.4999 37.8058 47.5 40V42.5H32.325ZM15 27.5C18.3152 27.5 21.4946 28.817 23.8388 31.1612C26.183 33.5054 27.5 36.6848 27.5 40V42.5H2.5V40C2.5 36.6848 3.81696 33.5054 6.16117 31.1612C8.50537 28.817 11.6848 27.5 15 27.5Z" fill="url(#paint0_radial_205_455)"/>
<path d="M22.5 15C22.5 16.9891 21.7098 18.8968 20.3033 20.3033C18.8968 21.7098 16.9891 22.5 15 22.5C13.0109 22.5 11.1032 21.7098 9.6967 20.3033C8.29018 18.8968 7.5 16.9891 7.5 15C7.5 13.0109 8.29018 11.1032 9.6967 9.6967C11.1032 8.29018 13.0109 7.5 15 7.5C16.9891 7.5 18.8968 8.29018 20.3033 9.6967C21.7098 11.1032 22.5 13.0109 22.5 15ZM42.5 15C42.5 15.9849 42.306 16.9602 41.9291 17.8701C41.5522 18.7801 40.9997 19.6069 40.3033 20.3033C39.6069 20.9997 38.7801 21.5522 37.8701 21.9291C36.9602 22.306 35.9849 22.5 35 22.5C34.0151 22.5 33.0398 22.306 32.1299 21.9291C31.2199 21.5522 30.3931 20.9997 29.6967 20.3033C29.0003 19.6069 28.4478 18.7801 28.0709 17.8701C27.694 16.9602 27.5 15.9849 27.5 15C27.5 13.0109 28.2902 11.1032 29.6967 9.6967C31.1032 8.29018 33.0109 7.5 35 7.5C36.9891 7.5 38.8968 8.29018 40.3033 9.6967C41.7098 11.1032 42.5 13.0109 42.5 15ZM32.325 42.5C32.44 41.6825 32.5 40.85 32.5 40C32.5058 36.0721 31.1843 32.2575 28.75 29.175C30.6502 28.0779 32.8057 27.5003 34.9999 27.5003C37.1941 27.5003 39.3496 28.0779 41.2499 29.1749C43.1501 30.272 44.7281 31.8499 45.8252 33.7501C46.9223 35.6503 47.4999 37.8058 47.5 40V42.5H32.325ZM15 27.5C18.3152 27.5 21.4946 28.817 23.8388 31.1612C26.183 33.5054 27.5 36.6848 27.5 40V42.5H2.5V40C2.5 36.6848 3.81696 33.5054 6.16117 31.1612C8.50537 28.817 11.6848 27.5 15 27.5Z" stroke="black"/>
<path d="M22.5 15C22.5 16.9891 21.7098 18.8968 20.3033 20.3033C18.8968 21.7098 16.9891 22.5 15 22.5C13.0109 22.5 11.1032 21.7098 9.6967 20.3033C8.29018 18.8968 7.5 16.9891 7.5 15C7.5 13.0109 8.29018 11.1032 9.6967 9.6967C11.1032 8.29018 13.0109 7.5 15 7.5C16.9891 7.5 18.8968 8.29018 20.3033 9.6967C21.7098 11.1032 22.5 13.0109 22.5 15ZM42.5 15C42.5 15.9849 42.306 16.9602 41.9291 17.8701C41.5522 18.7801 40.9997 19.6069 40.3033 20.3033C39.6069 20.9997 38.7801 21.5522 37.8701 21.9291C36.9602 22.306 35.9849 22.5 35 22.5C34.0151 22.5 33.0398 22.306 32.1299 21.9291C31.2199 21.5522 30.3931 20.9997 29.6967 20.3033C29.0003 19.6069 28.4478 18.7801 28.0709 17.8701C27.694 16.9602 27.5 15.9849 27.5 15C27.5 13.0109 28.2902 11.1032 29.6967 9.6967C31.1032 8.29018 33.0109 7.5 35 7.5C36.9891 7.5 38.8968 8.29018 40.3033 9.6967C41.7098 11.1032 42.5 13.0109 42.5 15ZM32.325 42.5C32.44 41.6825 32.5 40.85 32.5 40C32.5058 36.0721 31.1843 32.2575 28.75 29.175C30.6502 28.0779 32.8057 27.5003 34.9999 27.5003C37.1941 27.5003 39.3496 28.0779 41.2499 29.1749C43.1501 30.272 44.7281 31.8499 45.8252 33.7501C46.9223 35.6503 47.4999 37.8058 47.5 40V42.5H32.325ZM15 27.5C18.3152 27.5 21.4946 28.817 23.8388 31.1612C26.183 33.5054 27.5 36.6848 27.5 40V42.5H2.5V40C2.5 36.6848 3.81696 33.5054 6.16117 31.1612C8.50537 28.817 11.6848 27.5 15 27.5Z" stroke="#F7F4EE"/>
<defs>
<radialGradient id="paint0_radial_205_455" cx="0" cy="0" r="1" gradientTransform="matrix(22.5 17.5 -22.5 100.45 24.9933 25.3646)" gradientUnits="userSpaceOnUse">
<stop stop-color="#FFF4B0"/>
<stop offset="0.252665" stop-color="#F7D774"/>
<stop offset="0.5" stop-color="#D4AF37"/>
<stop offset="0.75" stop-color="#B8860B"/>
<stop offset="1" stop-color="#7A5A00"/>
</radialGradient>
</defs>
</svg>
