<svg width="25" height="25" viewBox="0 0 25 25" fill="none" xmlns="http://www.w3.org/2000/svg">
<path d="M20.1265 5.79395C19.9683 5.71218 19.8143 5.62255 19.6651 5.52539C19.2311 5.2385 18.8333 4.90046 18.48 4.51855C17.5962 3.50732 17.2662 2.48145 17.1446 1.76318H17.1495C17.0479 1.16699 17.0899 0.78125 17.0962 0.78125H13.0709V16.3467C13.0709 16.5557 13.0709 16.7622 13.0621 16.9663C13.0621 16.9917 13.0596 17.0151 13.0582 17.0425C13.0582 17.0537 13.0582 17.0654 13.0557 17.0771V17.0859C13.0133 17.6444 12.8343 18.1839 12.5344 18.657C12.2345 19.13 11.823 19.5222 11.336 19.7988C10.8284 20.0876 10.2544 20.239 9.67046 20.2383C7.79498 20.2383 6.27496 18.709 6.27496 16.8203C6.27496 14.9316 7.79498 13.4023 9.67046 13.4023C10.0255 13.402 10.3783 13.4579 10.7159 13.5679L10.7208 9.46924C9.69603 9.33687 8.655 9.41831 7.66332 9.70842C6.67165 9.99853 5.75086 10.491 4.95904 11.1548C4.26522 11.7576 3.68193 12.4769 3.23541 13.2803C3.06548 13.5732 2.42437 14.7505 2.34673 16.6611C2.29791 17.7456 2.62359 18.8691 2.77886 19.3335V19.3433C2.87652 19.6167 3.25494 20.5498 3.87164 21.3364C4.36892 21.9674 4.95644 22.5217 5.61529 22.9814V22.9717L5.62505 22.9814C7.57378 24.3057 9.73443 24.2188 9.73443 24.2188C10.1085 24.2036 11.3614 24.2188 12.7842 23.5444C14.3624 22.7969 15.2608 21.6831 15.2608 21.6831C15.8348 21.0176 16.2912 20.2592 16.6104 19.4404C16.9747 18.4829 17.0962 17.3345 17.0962 16.8755V8.61768C17.1451 8.64697 17.7955 9.07715 17.7955 9.07715C17.7955 9.07715 18.7325 9.67774 20.1944 10.0688C21.2432 10.3472 22.6563 10.4058 22.6563 10.4058V6.40967C22.1612 6.46338 21.1558 6.30713 20.1265 5.79395Z" fill="black"/>
<path d="M20.1265 5.79395C19.9683 5.71218 19.8143 5.62255 19.6651 5.52539C19.2311 5.2385 18.8333 4.90046 18.48 4.51855C17.5962 3.50732 17.2662 2.48145 17.1446 1.76318H17.1495C17.0479 1.16699 17.0899 0.78125 17.0962 0.78125H13.0709V16.3467C13.0709 16.5557 13.0709 16.7622 13.0621 16.9663C13.0621 16.9917 13.0596 17.0151 13.0582 17.0425C13.0582 17.0537 13.0582 17.0654 13.0557 17.0771V17.0859C13.0133 17.6444 12.8343 18.1839 12.5344 18.657C12.2345 19.13 11.823 19.5222 11.336 19.7988C10.8284 20.0876 10.2544 20.239 9.67046 20.2383C7.79498 20.2383 6.27496 18.709 6.27496 16.8203C6.27496 14.9316 7.79498 13.4023 9.67046 13.4023C10.0255 13.402 10.3783 13.4579 10.7159 13.5679L10.7208 9.46924C9.69603 9.33687 8.655 9.41831 7.66332 9.70842C6.67165 9.99853 5.75086 10.491 4.95904 11.1548C4.26522 11.7576 3.68193 12.4769 3.23541 13.2803C3.06548 13.5732 2.42437 14.7505 2.34673 16.6611C2.29791 17.7456 2.62359 18.8691 2.77886 19.3335V19.3433C2.87652 19.6167 3.25494 20.5498 3.87164 21.3364C4.36892 21.9674 4.95644 22.5217 5.61529 22.9814V22.9717L5.62505 22.9814C7.57378 24.3057 9.73443 24.2188 9.73443 24.2188C10.1085 24.2036 11.3614 24.2188 12.7842 23.5444C14.3624 22.7969 15.2608 21.6831 15.2608 21.6831C15.8348 21.0176 16.2912 20.2592 16.6104 19.4404C16.9747 18.4829 17.0962 17.3345 17.0962 16.8755V8.61768C17.1451 8.64697 17.7955 9.07715 17.7955 9.07715C17.7955 9.07715 18.7325 9.67774 20.1944 10.0688C21.2432 10.3472 22.6563 10.4058 22.6563 10.4058V6.40967C22.1612 6.46338 21.1558 6.30713 20.1265 5.79395Z" fill="url(#paint0_radial_295_162)"/>
<path d="M20.1265 5.79395C19.9683 5.71218 19.8143 5.62255 19.6651 5.52539C19.2311 5.2385 18.8333 4.90046 18.48 4.51855C17.5962 3.50732 17.2662 2.48145 17.1446 1.76318H17.1495C17.0479 1.16699 17.0899 0.78125 17.0962 0.78125H13.0709V16.3467C13.0709 16.5557 13.0709 16.7622 13.0621 16.9663C13.0621 16.9917 13.0596 17.0151 13.0582 17.0425C13.0582 17.0537 13.0582 17.0654 13.0557 17.0771V17.0859C13.0133 17.6444 12.8343 18.1839 12.5344 18.657C12.2345 19.13 11.823 19.5222 11.336 19.7988C10.8284 20.0876 10.2544 20.239 9.67046 20.2383C7.79498 20.2383 6.27496 18.709 6.27496 16.8203C6.27496 14.9316 7.79498 13.4023 9.67046 13.4023C10.0255 13.402 10.3783 13.4579 10.7159 13.5679L10.7208 9.46924C9.69603 9.33687 8.655 9.41831 7.66332 9.70842C6.67165 9.99853 5.75086 10.491 4.95904 11.1548C4.26522 11.7576 3.68193 12.4769 3.23541 13.2803C3.06548 13.5732 2.42437 14.7505 2.34673 16.6611C2.29791 17.7456 2.62359 18.8691 2.77886 19.3335V19.3433C2.87652 19.6167 3.25494 20.5498 3.87164 21.3364C4.36892 21.9674 4.95644 22.5217 5.61529 22.9814V22.9717L5.62505 22.9814C7.57378 24.3057 9.73443 24.2188 9.73443 24.2188C10.1085 24.2036 11.3614 24.2188 12.7842 23.5444C14.3624 22.7969 15.2608 21.6831 15.2608 21.6831C15.8348 21.0176 16.2912 20.2592 16.6104 19.4404C16.9747 18.4829 17.0962 17.3345 17.0962 16.8755V8.61768C17.1451 8.64697 17.7955 9.07715 17.7955 9.07715C17.7955 9.07715 18.7325 9.67774 20.1944 10.0688C21.2432 10.3472 22.6563 10.4058 22.6563 10.4058V6.40967C22.1612 6.46338 21.1558 6.30713 20.1265 5.79395Z" stroke="none"/>
<defs>
<radialGradient id="paint0_radial_295_162" cx="0" cy="0" r="1" gradientTransform="matrix(10.1573 11.7193 -10.1573 67.2692 12.496 12.7447)" gradientUnits="userSpaceOnUse">
<stop stop-color="#FFF4B0"/>
<stop offset="0.252665" stop-color="#F7D774"/>
<stop offset="0.5" stop-color="#D4AF37"/>
<stop offset="0.75" stop-color="#B8860B"/>
<stop offset="1" stop-color="#7A5A00"/>
</radialGradient>
</defs>
</svg>
